<svg xmlns="http://www.w3.org/2000/svg" xmlns:html="http://www.w3.org/1999/xhtml" xmlns:xlink="http://www.w3.org/1999/xlink" version="1.1" style="--editorTheme3-PenColor: #0FBD8C; --editorTheme3-_version: 3; --editorTheme3-commentColor: #FEF49C; --editorTheme3-controlColor: #FFBF00; --editorTheme3-customColor: #5f49d8; --editorTheme3-dataColor: #FF8C1A; --editorTheme3-dataListsColor: #FF661A; --editorTheme3-eventsColor: #DE9E2E; --editorTheme3-inputColor: #FFFFFF; --editorTheme3-looksColor: #9966FF; --editorTheme3-motionColor: #4C97FF; --editorTheme3-operatorsColor: #59C059; --editorTheme3-saColor: #29BEB8; --editorTheme3-sensingColor: #5CB1D6; --editorTheme3-soundsColor: #CF63CF; --editorTheme3-text: colorOnBlack; --editorTheme3-inputColor-text: #575e75; --editorTheme3-inputColor-blackText: #000000; --editorTheme3-commentText: #575e75; --editorTheme3-commentTextTransparent: rgba(0, 0, 0, 0.50); --editorTheme3-commentBorder: #b2ab6dff; --editorTheme3-motion-primary: #282828; --editorTheme3-motion-secondary: #2d3948; --editorTheme3-motion-tertiary: #4C97FF; --editorTheme3-motion-field: #31445e; --editorTheme3-looks-primary: #282828; --editorTheme3-looks-secondary: #393148; --editorTheme3-looks-tertiary: #9966FF; --editorTheme3-looks-field: #44385e; --editorTheme3-sounds-primary: #282828; --editorTheme3-sounds-secondary: #413141; --editorTheme3-sounds-tertiary: #CF63CF; --editorTheme3-sounds-field: #523752; --editorTheme3-event-primary: #282828; --editorTheme3-event-secondary: #433a29; --editorTheme3-event-tertiary: #DE9E2E; --editorTheme3-event-field: #56462a; --editorTheme3-control-primary: #282828; --editorTheme3-control-secondary: #483f22; --editorTheme3-control-tertiary: #FFBF00; --editorTheme3-control-field: #5e4e1e; --editorTheme3-sensing-primary: #282828; --editorTheme3-sensing-secondary: #303c42; --editorTheme3-sensing-tertiary: #5CB1D6; --editorTheme3-sensing-field: #354a54; --editorTheme3-operators-primary: #282828; --editorTheme3-operators-secondary: #2f3f2f; --editorTheme3-operators-tertiary: #59C059; --editorTheme3-operators-field: #344e34; --editorTheme3-data-primary: #282828; --editorTheme3-data-secondary: #483726; --editorTheme3-data-tertiary: #FF8C1A; --editorTheme3-data-field: #5e4124; --editorTheme3-data_lists-primary: #282828; --editorTheme3-data_lists-secondary: #483126; --editorTheme3-data_lists-tertiary: #FF661A; --editorTheme3-data_lists-field: #5e3824; --editorTheme3-more-primary: #282828; --editorTheme3-more-secondary: #302d42; --editorTheme3-more-tertiary: #5f49d8; --editorTheme3-more-field: #363054; --editorTheme3-pen-primary: #282828; --editorTheme3-pen-secondary: #243e37; --editorTheme3-pen-tertiary: #0FBD8C; --editorTheme3-pen-field: #224d41; --editorTheme3-sa-primary: #282828; --editorTheme3-sa-secondary: #283e3d; --editorTheme3-sa-tertiary: #29BEB8; --editorTheme3-sa-field: #284e4c;"><style xmlns="http://www.w3.org/1999/xhtml">
    .blocklyText {
        fill: #fff;
        font-family: "Helvetica Neue", Helvetica, sans-serif;
        font-size: 12pt;
        font-weight: 500;
    }
    .blocklyNonEditableText&gt;text, .blocklyEditableText&gt;text {
        fill: #575E75;
    }
    .blocklyDropdownText {
        fill: #fff !important;
    }
    .blocklyEditableText &gt; text {
  fill: var(--editorTheme3-inputColor-text);
}
.blocklyHtmlInput {
  background-color: var(--editorTheme3-inputColor);
  color: var(--editorTheme3-inputColor-text);
}

/* Override Scratch's high contrast theme */
.blocklyDropDownDiv .goog-menuitem {
  color: white;
}
.blocklyDropDownDiv .blocklyText {
  /* "Play note" dropdown */
  fill: white;
}
.blocklyDropDownDiv .goog-menuitem-highlight,
.blocklyDropDownDiv .goog-menuitem-hover,
.sa-contextmenu-colored .blocklyContextMenu .goog-menuitem-highlight {
  background-color: var(--editorTheme3-hoveredItem, rgba(0, 0, 0, 0.2));
}

.scratchCommentRect {
  fill: var(--editorTheme3-commentColor);
}
.scratchCommentBody,
.scratchCommentTextarea {
  background-color: var(--editorTheme3-commentColor);
}
.scratchWorkspaceCommentBorder {
  stroke: var(--editorTheme3-commentBorder);
}
.scratchCommentTextarea::placeholder {
  color: var(--editorTheme3-commentTextTransparent);
}
.scratchCommentText {
  fill: var(--editorTheme3-commentText);
  color: var(--editorTheme3-commentText);
}

.sa-colormode-submenu li:nth-child(1) div,
.sa-colormode-submenu li:nth-child(2) div {
  filter: opacity(0.5) grayscale(1);
}
.sa-theme3-managed {
  filter: opacity(0.5);
}
.sa-colormode-submenu li:nth-child(1) div img:first-child,
.sa-colormode-submenu li:nth-child(2) div img:first-child,
.sa-theme3-link div img:first-child {
  visibility: hidden;
}
.sa-colormode-submenu li:nth-child(1):hover,
.sa-colormode-submenu li:nth-child(2):hover,
.sa-theme3-managed:hover {
  background-color: inherit;
  cursor: default;
}
.sa-theme3-link .sa-theme3-new-tab {
  margin-left: auto;
  height: 1.25rem;
  width: 1.25rem;
  filter: var(--editorDarkMode-menuBar-filter, none);
}
[dir="rtl"] .sa-theme3-link .sa-theme3-new-tab {
  margin-left: 0;
  margin-right: auto;
  transform: rotate(-90deg);
}

/*# sourceURL=theme3.css */.u-dropdown-searchbar {
  border-color: rgba(255, 255, 255, 0.15);
}
.u-dropdown-searchbar:focus {
  background-color: var(--editorTheme3-hoveredItem);
}
.blocklyDropDownDiv .goog-menuitem-checkbox {
  filter: brightness(0) invert(1);
}

.scratchCommentRect {
  fill: #282828;
}
.scratchCommentBody,
.scratchCommentTextarea {
  background-color: #282828;
}
.scratchWorkspaceCommentBorder {
  stroke: var(--editorTheme3-commentColor);
}
.scratchCommentTextarea::placeholder {
  color: rgba(255, 255, 255, 0.5);
}
.scratchCommentText {
  fill: #ffffff;
  color: #ffffff;
}

/* Compatibility */

.sa-block-color {
  --sa-block-colored-background: var(--sa-block-background-secondary);
  --sa-block-colored-background-secondary: var(--sa-block-field-background);
  --sa-block-bright-background: var(--sa-block-background-tertiary);
  --sa-block-text: var(--sa-block-background-tertiary);
  --sa-block-gray-text: white;
  --sa-block-colored-text: var(--sa-block-background-tertiary);
  --sa-block-text-on-bright-background: white;
}

/*# sourceURL=color_on_black.css */</style><g data-id="e^2A{`!8_r:5s;|x#uGJ" class="blocklyDraggable blocklySelected" data-shapes="stack" data-category="data" transform="translate(0,0) "><path class="blocklyPath blocklyBlockBackground" stroke="#FF8C1A" fill="#282828" fill-opacity="1" d="m 0,4 A 4,4 0 0,1 4,0 H 12 c 2,0 3,1 4,2 l 4,4 c 1,1 2,2 4,2 h 12 c 2,0 3,-1 4,-2 l 4,-4c 1,-1 2,-2 4,-2 H 533.5483245849609 a 4,4 0 0,1 4,4 v 40  a 4,4 0 0,1 -4,4 H 48   h 0c -2,0 -3,1 -4,2 l -4,4 c -1,1 -2,2 -4,2 h -12 c -2,0 -3,-1 -4,-2 l -4,-4c -1,-1 -2,-2 -4,-2 H 4 a 4,4 0 0,1 -4,-4 z"/><g data-id="/YWRB*]9={e3WurH=?j!" data-argument-type="text" data-shapes="argument round" transform="translate(273.1270294189453,8)"><path class="blocklyPath blocklyBlockBackground" stroke="#FF8C1A" fill="#FFFFFF" fill-opacity="1" d="m 0,0 m 16,0 H 240.42129516601562 a 16 16 0 0 1 0 32 H 16 a 16 16 0 0 1 0 -32 z"/><g class="blocklyEditableText" transform="translate(8, 0) " style="cursor: text;"><text class="blocklyText" x="120.21064758300781" y="18" dominant-baseline="middle" dy="0" text-anchor="middle">Here enter count of characters</text></g><g><g/></g></g><g data-id="t|v/mXEAyC5e;)fHrFfR" class="blocklyDraggable" data-shapes="stack" data-category="events" transform="translate(0,48)"><path class="blocklyPath blocklyBlockBackground" stroke="#DE9E2E" fill="#282828" fill-opacity="1" d="m 0,4 A 4,4 0 0,1 4,0 H 12 c 2,0 3,1 4,2 l 4,4 c 1,1 2,2 4,2 h 12 c 2,0 3,-1 4,-2 l 4,-4c 1,-1 2,-2 4,-2 H 468.5228576660156 a 4,4 0 0,1 4,4 v 40  a 4,4 0 0,1 -4,4 H 48   h 0c -2,0 -3,1 -4,2 l -4,4 c -1,1 -2,2 -4,2 h -12 c -2,0 -3,-1 -4,-2 l -4,-4c -1,-1 -2,-2 -4,-2 H 4 a 4,4 0 0,1 -4,-4 z"/><g data-id="eL90~FF4!.lWMTTQ[KGj" data-argument-type="variable" data-shapes="argument round" transform="translate(93.046875,8)"><path class="blocklyPath blocklyBlockBackground" stroke="#DE9E2E" fill="#433a29" fill-opacity="1" d="m 0,0 m 16,0 H 282.6087951660156 a 16 16 0 0 1 0 32 H 16 a 16 16 0 0 1 0 -32 z"/><g class="blocklyEditableText" transform="translate(8, 0) " style="cursor: default;"><text class="blocklyText blocklyDropdownText" x="131.3043975830078" y="18" dominant-baseline="middle" dy="0" text-anchor="middle" style="fill: rgb(222, 158, 46) !important;">Scratchon.getRandomCharacters</text><g transform="translate(266.6087951660156,11)"><path d="M12.71,2.44A2.41,2.41,0,0,1,12,4.16L8.08,8.08a2.45,2.45,0,0,1-3.45,0L0.72,4.16A2.42,2.42,0,0,1,0,2.44,2.48,2.48,0,0,1,.71.71C1,0.47,1.43,0,6.36,0S11.75,0.46,12,.71A2.44,2.44,0,0,1,12.71,2.44Z" fill="#231f20" fill-opacity="0.1" transform="translate(0, 1.6)"/><path d="M6.36,7.79a1.43,1.43,0,0,1-1-.42L1.42,3.45a1.44,1.44,0,0,1,0-2c0.56-.56,9.31-0.56,9.87,0a1.44,1.44,0,0,1,0,2L7.37,7.37A1.43,1.43,0,0,1,6.36,7.79Z" fill="#DE9E2E" transform="translate(0, 1.6)"/></g></g><g><g/></g></g><g data-id="IJ33=ZmOIZxdhi)CL[mK" class="blocklyDraggable" data-shapes="stack" transform="translate(0,48)"><path class="blocklyPath blocklyBlockBackground" stroke="#5f49d8" fill="#282828" fill-opacity="1" d="m 0,4 A 4,4 0 0,1 4,0 H 12 c 2,0 3,1 4,2 l 4,4 c 1,1 2,2 4,2 h 12 c 2,0 3,-1 4,-2 l 4,-4c 1,-1 2,-2 4,-2 H 620.1030044555664 a 4,4 0 0,1 4,4 v 48  a 4,4 0 0,1 -4,4 H 48   h 0c -2,0 -3,1 -4,2 l -4,4 c -1,1 -2,2 -4,2 h -12 c -2,0 -3,-1 -4,-2 l -4,-4c -1,-1 -2,-2 -4,-2 H 4 a 4,4 0 0,1 -4,-4 z"/><text class="blocklyText" y="2" text-anchor="middle" dominant-baseline="middle" dy="0" x="46.36574172973633" transform="translate(8, 28) " style="fill: rgb(95, 73, 216);"># Comment:</text><path class="blocklyPath" style="visibility: hidden" d="" fill="#363054"/><g data-id="br]92PG^3i1hen*vEHs(" class="blocklyDraggable" data-shapes="reporter round" data-category="operators" transform="translate(108.73148345947266,4)"><path class="blocklyPath blocklyBlockBackground sa-zebra-stripe" stroke="#59C059" fill="#282828" fill-opacity="1" d="m 0,0 m 24,0 H 483.37152099609375 a 24 24 0 0 1 0 48 H 24 a 24 24 0 0 1 0 -48 z"/><g data-id="u))2|;a2D?ejp[LH.O=Q" data-argument-type="text" data-shapes="argument round" transform="translate(47.84375,8)"><path class="blocklyPath blocklyBlockBackground sa-zebra-stripe" stroke="#59C059" fill="#FFFFFF" fill-opacity="1" d="m 0,0 m 16,0 H 244.53009033203125 a 16 16 0 0 1 0 32 H 16 a 16 16 0 0 1 0 -32 z"/><g class="blocklyEditableText sa-zebra-stripe" transform="translate(8, 0) " style="cursor: text;"><text class="blocklyText" x="122.26504516601562" y="18" dominant-baseline="middle" dy="0" text-anchor="middle">Use this variable to get output: </text></g><g><g/></g></g><g data-id="mv!ar7]`zfWK|u0#Ho/f" class="blocklyDraggable" data-shapes="reporter round" data-category="data" transform="translate(316.37384033203125,4)"><path class="blocklyPath blocklyBlockBackground" stroke="#FF8C1A" fill="#282828" fill-opacity="1" d="m 0,0 m 20,0 H 166.9976806640625 a 20 20 0 0 1 0 40 H 20 a 20 20 0 0 1 0 -40 z"/><g transform="translate(12, 4) "><text class="blocklyText" x="81.49884033203125" y="18" dominant-baseline="middle" dy="0" text-anchor="middle" style="fill: rgb(255, 140, 26);">__scratchon__.output</text></g><g><g/></g></g><text class="blocklyText" y="2" text-anchor="middle" dominant-baseline="middle" dy="0" x="13.921875" transform="translate(12, 24) " style="fill: rgb(89, 192, 89);">join</text><path class="blocklyPath sa-zebra-stripe" style="visibility: hidden" d="" fill="#344e34"/><path class="blocklyPath sa-zebra-stripe" style="visibility: hidden" d="" fill="#344e34"/><g><g/></g></g><g data-id="K,9$/)CVlQ#$R,Sto~dM" class="blocklyDraggable" data-shapes="stack" transform="translate(0,56)"><path class="blocklyPath blocklyBlockBackground" stroke="#5f49d8" fill="#282828" fill-opacity="1" d="m 0,4 A 4,4 0 0,1 4,0 H 12 c 2,0 3,1 4,2 l 4,4 c 1,1 2,2 4,2 h 12 c 2,0 3,-1 4,-2 l 4,-4c 1,-1 2,-2 4,-2 H 328.2731399536133 a 4,4 0 0,1 4,4 v 40  a 4,4 0 0,1 -4,4 H 48   h 0c -2,0 -3,1 -4,2 l -4,4 c -1,1 -2,2 -4,2 h -12 c -2,0 -3,-1 -4,-2 l -4,-4c -1,-1 -2,-2 -4,-2 H 4 a 4,4 0 0,1 -4,-4 z"/><text class="blocklyText" y="2" text-anchor="middle" dominant-baseline="middle" dy="0" x="46.36574172973633" transform="translate(8, 24) " style="fill: rgb(95, 73, 216);"># Comment:</text><path class="blocklyPath" style="visibility: hidden" d="" fill="#363054"/><g data-id="JEQ.z3_=D,0jim4?ZK@F" data-argument-type="text" data-shapes="argument round" transform="translate(108.73148345947266,8)"><path class="blocklyPath blocklyBlockBackground" stroke="#5f49d8" fill="#FFFFFF" fill-opacity="1" d="m 0,0 m 16,0 H 199.54165649414062 a 16 16 0 0 1 0 32 H 16 a 16 16 0 0 1 0 -32 z"/><g class="blocklyEditableText" transform="translate(8, 0) " style="cursor: text;"><text class="blocklyText" x="99.77082824707031" y="18" dominant-baseline="middle" dy="0" text-anchor="middle">The output is "PTvOtlAv"!</text></g><g><g/></g></g><g><g/></g></g><g><g/></g></g><text class="blocklyText" y="2" text-anchor="middle" dominant-baseline="middle" dy="0" x="38.5234375" transform="translate(8, 24) " style="fill: rgb(222, 158, 46);">broadcast</text><path class="blocklyPath" style="visibility: hidden" d="" fill="#56462a"/><text class="blocklyText" y="2" text-anchor="middle" dominant-baseline="middle" dy="0" x="32.43359375" transform="translate(399.6556701660156, 24) " style="fill: rgb(222, 158, 46);">and wait</text><g><g/></g></g><text class="blocklyText" y="2" text-anchor="middle" dominant-baseline="middle" dy="0" x="11.70703125" transform="translate(8, 24) " style="fill: rgb(255, 140, 26);">set</text><g data-argument-type="variable" class="blocklyEditableText" transform="translate(48, 8) " style="cursor: default;"><rect rx="4" ry="4" x="0" y="0" width="193.7129669189453" height="32" stroke="#FF8C1A" fill="#282828" class="blocklyBlockBackground" fill-opacity="1"/><text class="blocklyText blocklyDropdownText" x="86.85648345947266" y="18" dominant-baseline="middle" dy="0" text-anchor="middle" style="fill: rgb(255, 140, 26) !important;">__scratchon__.input</text><g transform="translate(169.7129669189453,11)"><path d="M12.71,2.44A2.41,2.41,0,0,1,12,4.16L8.08,8.08a2.45,2.45,0,0,1-3.45,0L0.72,4.16A2.42,2.42,0,0,1,0,2.44,2.48,2.48,0,0,1,.71.71C1,0.47,1.43,0,6.36,0S11.75,0.46,12,.71A2.44,2.44,0,0,1,12.71,2.44Z" fill="#231f20" fill-opacity="0.1" transform="translate(0, 1.6)"/><path d="M6.36,7.79a1.43,1.43,0,0,1-1-.42L1.42,3.45a1.44,1.44,0,0,1,0-2c0.56-.56,9.31-0.56,9.87,0a1.44,1.44,0,0,1,0,2L7.37,7.37A1.43,1.43,0,0,1,6.36,7.79Z" fill="#FF8C1A" transform="translate(0, 1.6)"/></g></g><text class="blocklyText" y="2" text-anchor="middle" dominant-baseline="middle" dy="0" x="7.70703125" transform="translate(249.7129669189453, 24) " style="fill: rgb(255, 140, 26);">to</text><path class="blocklyPath" style="visibility: hidden" d="" fill="#5e4124"/><g><g/></g></g></svg>